<svg xmlns="http://www.w3.org/2000/svg"
	   viewBox="-56.5 62.5 75 75"
     width="100%" height="100%">
<g>
	<path fill="#00A400" stroke="#003500"
    stroke-width="0.3" stroke-miterlimit="10"
    stroke-linejoin="round" stroke-linecap="round"
    d="M17.6,94.7c-0.4-0.2-2.5-0.6-4.2-0.1
		c-0.3-0.3-0.8-0.3-1.2-0.1c-1.1,0.6-2.2,2.5-4,5.5c-0.9,1.5-1.9,3.2-2.4,3.7c-0.9,0.7-6.5-0.2-7.6-0.7c-0.2-0.1-1.2-1-1.9-1.7
		c-1.9-1.7-3.4-3-4.2-3.4c-0.7-0.3-1.2-0.6-1.9-0.2c-0.1,0.1-0.4,0.1-0.6,0.1c-1.9,0.1-3,0.8-3.1,0.9c0,0,0,0,0,0.1
		c-1-0.2-2-0.6-2.8-1.4c-0.8-0.8-1.3-1.8-1.5-2.9c0,0,0,0,0,0c0.1-0.1,0.9-1.2,0.9-3.1c0-0.2,0-0.5,0.1-0.6c0.4-0.7,0.2-1.2-0.2-1.9
		c-0.4-0.9-1.7-2.3-3.4-4.2c-0.7-0.7-1.5-1.7-1.6-1.8c-1.1-2.8-1-7.3-0.7-7.7c0.5-0.5,2.2-1.5,3.7-2.4c3-1.7,4.9-2.9,5.5-4
		c0.2-0.4,0.2-0.9-0.1-1.2c0.4-1.7,0.1-3.8-0.1-4.2c-0.1-0.3-0.4-0.4-0.7-0.2c-0.3,0.1-0.4,0.4-0.3,0.7c0.1,0.2,0.4,1.9,0.1,3.3
		c-0.3,0.1-0.6,0.2-0.8,0.5c-0.3,0.6-3,2.2-4.7,3.1c-1.9,1.1-3.5,2-4.2,2.8c-2,2.2,0.2,9.9,0.3,10c0.2,0.4,0.6,0.9,2,2.5
		c1,1.1,2.8,3.1,3,3.7c0,0.1,0.1,0.2,0.1,0.2c-0.1,0.3-0.2,0.7-0.2,1.3c0,1.1-0.4,1.7-0.5,1.8c-0.7,0.2-1.5,0.5-2.3,0.7l-2.4-2.7
		c-0.2-0.2-0.4-0.3-0.6-0.3c-3.4-0.8-7.3-1.8-8-2.1c-0.5-0.4-2.3-3.1-2.7-5.3c-0.1-0.8-0.1-1.2,0.1-1.4c0.4-0.5,0.2-1.2-0.2-1.5
		c-0.5-0.4-1.2-0.2-1.5,0.2c-0.6,0.8-0.7,1.9-0.4,3.3c0.6,2.5,2.5,5.8,3.7,6.5c1.2,0.6,6.5,1.9,8.2,2.3l1.6,1.8
		c-1.3,0.5-2.7,1.1-4.1,1.7l-3.5-1.6c-0.3-0.1-0.6-0.1-0.8,0c-3.7,1.4-9.8,3.1-11.4,2.5c-2.2-0.8-2.8-3-2.8-3.1
		c-0.1-0.6-0.7-0.9-1.3-0.8c-0.6,0.1-0.9,0.7-0.8,1.3c0,0.1,0.9,3.4,4.2,4.6c0.5,0.2,1,0.2,1.7,0.2c3.4,0,8.9-1.9,10.8-2.6l1.4,0.6
		c-1.4,0.7-2.7,1.4-3.9,2.1c-0.1-0.1-0.3-0.2-0.4-0.2c-0.4-0.1-3.8-0.8-5.6,0.9l-0.4,0.4c-1.6,1.5-6,5.7-7.4,6.7
		c-0.7,0.5-2.9,0.8-4.8,1c0.3-1.4,0.5-3.3-0.5-5c-0.3-0.5-1-0.7-1.5-0.3c-0.5,0.3-0.7,1-0.4,1.5c1.1,1.8-0.2,4.5-0.2,4.5
		c-0.2,0.3-0.1,0.7,0.1,1.1c0.2,0.3,0.5,0.5,0.9,0.5c0,0,0,0,0,0c1,0,5.8-0.2,7.6-1.5c1.3-1,4.6-4,7.6-6.9l0.4-0.4
		c0.4-0.4,1.1-0.5,1.9-0.5c-0.9,0.7-1.8,1.4-2.5,2.1c-6.6,6.6-7.3,16.7-3.5,20.5c3.8,3.8,13.9,3.1,20.5-3.5c0.8-0.8,1.6-1.8,2.4-2.9
		c0.1,1,0,2.2-0.5,2.7l-0.3,0.3c-2.7,2.9-6,6.4-7,7.8c-1.3,1.8-1.5,6.6-1.5,7.6c0,0.4,0.2,0.7,0.5,0.9c0.2,0.1,0.4,0.2,0.6,0.2
		c0.2,0,0.3,0,0.5-0.1c0,0,2.7-1.3,4.5-0.2c0.5,0.3,1.2,0.2,1.5-0.4c0.3-0.5,0.2-1.2-0.3-1.5c-1.7-1-3.6-0.8-5-0.5
		c0.1-1.9,0.5-4.1,1-4.8c1-1.4,5.2-5.9,6.8-7.5l0.3-0.3c1.7-1.8,1-5.3,0.9-5.7c-0.1-0.3-0.3-0.6-0.6-0.7c0.8-1.3,1.5-2.7,2.2-4.2
		l0.9,2c-0.8,2.3-3.4,9.7-2.3,12.5c1.2,3.3,4.4,4.1,4.6,4.2c0.1,0,0.2,0,0.3,0c0.5,0,0.9-0.3,1.1-0.8c0.1-0.6-0.2-1.2-0.8-1.3
		c0,0-2.3-0.6-3.1-2.8c-0.6-1.6,1.1-7.7,2.5-11.4c0.1-0.3,0.1-0.6,0-0.8l-1.8-3.9c0-0.1-0.1-0.1-0.1-0.2c0.6-1.3,1.1-2.6,1.6-3.9
		l2.2,1.9c0.4,1.7,1.6,7.1,2.3,8.2c0.7,1.3,4,3.2,6.5,3.7c0.5,0.1,1,0.2,1.4,0.2c0.8,0,1.4-0.2,1.9-0.5c0.5-0.4,0.6-1,0.2-1.5
		c-0.4-0.5-1-0.6-1.5-0.2c-0.2,0.1-0.6,0.2-1.3,0.1c-2.2-0.4-5-2.2-5.3-2.7c-0.4-0.7-1.4-4.6-2.1-8c0-0.2-0.2-0.4-0.3-0.6l-3.1-2.8
		c0.2-0.6,0.4-1.2,0.6-1.8c0.2,0,0.4-0.1,0.5-0.2c0,0,0.6-0.4,1.8-0.5c0.6,0,1-0.1,1.3-0.2c0.1,0,0.1,0.1,0.2,0.1
		c0.6,0.3,2.5,2,3.7,3c1.6,1.5,2.1,1.8,2.5,2c0,0,3.8,1.1,6.8,1.1c1.3,0,2.5-0.2,3.2-0.8c0.8-0.7,1.7-2.3,2.8-4.2
		c0.9-1.6,2.5-4.3,3.1-4.7c0.3-0.2,0.5-0.5,0.5-0.8c1.4-0.3,3.1,0,3.3,0.1c0.3,0.1,0.6,0,0.7-0.2C18,95.1,17.9,94.8,17.6,94.7z"/>
	<path fill="#00A400" stroke="#003500"
    stroke-width="0.3" stroke-miterlimit="10"
    stroke-linejoin="round" stroke-linecap="round"
  d="M-15.5,91.5c-1.4,1.4-1.4,3.6,0,4.9
		c1.4,1.4,3.6,1.4,4.9,0c0.5-0.5,0.8-1.1,1-1.8c2.4-1.6,0.2-4.2,0.2-4.2c0.1,1.1-0.3,1.4-0.7,1.6c-0.1-0.2-0.3-0.4-0.4-0.5
		c-0.1-0.1-0.3-0.3-0.4-0.4c0.1-0.4,0.5-0.8,1.6-0.7c0,0-2.5-2.1-4.1,0.1C-14.2,90.7-14.9,91-15.5,91.5z"/>
</g>
</svg>
